<svg width="21" height="20" viewBox="0 0 21 20" fill="none" xmlns="http://www.w3.org/2000/svg">
<path d="M7.16667 14.1667H13.8333M9.68141 2.30333L4.02949 6.69927C3.65168 6.99312 3.46278 7.14005 3.32669 7.32405C3.20614 7.48704 3.11633 7.67065 3.06169 7.86588C3 8.08627 3 8.32558 3 8.80421V14.8333C3 15.7667 3 16.2335 3.18166 16.59C3.34144 16.9036 3.59641 17.1585 3.91002 17.3183C4.26654 17.5 4.73325 17.5 5.66667 17.5H15.3333C16.2668 17.5 16.7335 17.5 17.09 17.3183C17.4036 17.1585 17.6586 16.9036 17.8183 16.59C18 16.2335 18 15.7667 18 14.8333V8.80421C18 8.32558 18 8.08627 17.9383 7.86588C17.8837 7.67065 17.7939 7.48704 17.6733 7.32405C17.5372 7.14005 17.3483 6.99312 16.9705 6.69927L11.3186 2.30333C11.0258 2.07562 10.8794 1.96177 10.7178 1.918C10.5752 1.87938 10.4248 1.87938 10.2822 1.918C10.1206 1.96177 9.97418 2.07562 9.68141 2.30333Z" stroke="#344054" stroke-width="1.66667" stroke-linecap="round" stroke-linejoin="round"/>
</svg>
