<svg width="68" height="68" viewBox="0 0 68 68" fill="none" xmlns="http://www.w3.org/2000/svg">
<g clip-path="url(#clip0_9974_82663)">
<path d="M2.83984 34.0052L21.2787 22.7363V68L9.91168 61.6857C5.55144 59.2699 2.83984 54.6697 2.83984 49.679V34.0052Z" fill="#151D92"/>
<path d="M63.3843 23.7272V37.0792C63.3771 42.0049 60.7451 46.5471 56.4788 49.0063L23.5781 67.8843V46.5688L44.0561 34.837L63.3843 23.7272Z" fill="#1F6DF6"/>
<path d="M62.2562 21.7092L44.0559 32.168C36.8765 27.898 31.142 24.4873 25.5286 21.1487C25.17 20.9354 24.8118 20.7224 24.4538 20.5094C18.1833 16.78 11.9586 13.0778 3.92432 8.29932L15.1322 1.82584C19.4346 -0.64782 24.7349 -0.604422 29.0011 1.93434L62.2562 21.7092Z" fill="#16BCF7"/>
</g>
<defs>
<clipPath id="clip0_9974_82663">
<rect width="68" height="68" rx="7.3" fill="white"/>
</clipPath>
</defs>
</svg>
