<svg width="204" height="204" viewBox="0 0 204 204" fill="none" xmlns="http://www.w3.org/2000/svg">
<g filter="url(#filter0_d_9974_82545)">
<rect x="52" y="20" width="100" height="100" rx="13" fill="url(#paint0_linear_9974_82545)"/>
<g clip-path="url(#clip0_9974_82545)">
<path d="M70.8398 70.0052L89.2787 58.7363V104L77.9117 97.6857C73.5514 95.2699 70.8398 90.6697 70.8398 85.679V70.0052Z" fill="#151D92"/>
<path d="M131.384 59.7272V73.0792C131.377 78.0049 128.745 82.5471 124.479 85.0063L91.5781 103.884V82.5688L112.056 70.837L131.384 59.7272Z" fill="#1F6DF6"/>
<path d="M130.256 57.7092L112.056 68.168C104.876 63.898 99.142 60.4873 93.5286 57.1487C93.17 56.9354 92.8118 56.7224 92.4538 56.5094C86.1833 52.78 79.9586 49.0778 71.9243 44.2993L83.1322 37.8258C87.4346 35.3522 92.7349 35.3956 97.0011 37.9343L130.256 57.7092Z" fill="#16BCF7"/>
</g>
</g>
<defs>
<filter id="filter0_d_9974_82545" x="0" y="0" width="204" height="204" filterUnits="userSpaceOnUse" color-interpolation-filters="sRGB">
<feFlood flood-opacity="0" result="BackgroundImageFix"/>
<feColorMatrix in="SourceAlpha" type="matrix" values="0 0 0 0 0 0 0 0 0 0 0 0 0 0 0 0 0 0 127 0" result="hardAlpha"/>
<feMorphology radius="12" operator="erode" in="SourceAlpha" result="effect1_dropShadow_9974_82545"/>
<feOffset dy="32"/>
<feGaussianBlur stdDeviation="32"/>
<feColorMatrix type="matrix" values="0 0 0 0 0.0625882 0 0 0 0 0.0926346 0 0 0 0 0.15702 0 0 0 0.14 0"/>
<feBlend mode="normal" in2="BackgroundImageFix" result="effect1_dropShadow_9974_82545"/>
<feBlend mode="normal" in="SourceGraphic" in2="effect1_dropShadow_9974_82545" result="shape"/>
</filter>
<linearGradient id="paint0_linear_9974_82545" x1="102" y1="20" x2="102" y2="120" gradientUnits="userSpaceOnUse">
<stop stop-color="white"/>
<stop offset="1" stop-color="#EDEDED"/>
</linearGradient>
<clipPath id="clip0_9974_82545">
<rect x="68" y="36" width="68" height="68" rx="7.3" fill="white"/>
</clipPath>
</defs>
</svg>
